<svg width="1440" height="299" viewBox="0 0 1440 299" fill="none" xmlns="http://www.w3.org/2000/svg">
<path fill-rule="evenodd" clip-rule="evenodd" d="M255.651 73.4826C277.755 96.1955 300.006 119.06 346.351 129.393C393.932 140.001 427.534 131.992 464.998 123.063C493.628 116.24 524.513 108.879 565.615 108.879C648.773 108.879 660.435 117.238 694.446 141.618C698.781 144.725 703.479 148.093 708.734 151.737C794.517 221.652 950.694 240.964 1074.93 240.964C1227.81 240.964 1392.47 139.413 1440 0.11377V299H0V0.631929C0.245889 0.673291 0.496331 0.702371 0.750725 0.718504C25.9969 2.31948 115.84 8.49095 163.5 18C210.851 27.4475 233.175 50.3868 255.651 73.4826Z" fill="white"/>
</svg>
